<svg width="100" height="100" fill="none" xmlns="http://www.w3.org/2000/svg"><g clip-path="url(#clip0)" fill="#fff"><path d="M86.253 36.42c-20.082-20.082-52.756-20.082-72.84 0L0 49.834 13.747 63.58c10.04 10.04 23.23 15.062 36.42 15.062 13.191 0 26.379-5.02 36.42-15.062l13.415-13.414L86.253 36.42zm-2.055 24.771c-18.766 18.763-49.298 18.763-68.063 0L4.777 49.833l11.025-11.026c18.766-18.763 49.298-18.763 68.063 0l11.358 11.359L84.198 61.19z"/><path d="M48.264 36.436c-6.52 0-11.825 5.304-11.825 11.824a1.69 1.69 0 003.379 0c0-4.657 3.788-8.446 8.446-8.446a1.69 1.69 0 000-3.378z"/><path d="M49.953 27.99c-12.108 0-21.96 9.851-21.96 21.96 0 12.108 9.852 21.959 21.96 21.959s21.96-9.851 21.96-21.96c0-12.108-9.85-21.959-21.96-21.959zm0 40.54c-10.245 0-18.581-8.336-18.581-18.58 0-10.245 8.336-18.582 18.58-18.582 10.246 0 18.582 8.337 18.582 18.581 0 10.245-8.335 18.582-18.581 18.582z"/></g><defs><clipPath id="clip0"><path fill="#fff" d="M0 0h100v100H0z"/></clipPath></defs></svg>